<svg width="31" height="31" viewBox="0 0 31 31" fill="none" xmlns="http://www.w3.org/2000/svg">
<path d="M26.2487 13.0472H22.5483C19.5137 13.0472 17.0425 10.5759 17.0425 7.54136V3.84096C17.0425 3.13673 16.4663 2.56055 15.7621 2.56055H10.3331C6.38941 2.56055 3.20117 5.12138 3.20117 9.69246V21.0369C3.20117 25.608 6.38941 28.1689 10.3331 28.1689H20.3972C24.3408 28.1689 27.5291 25.608 27.5291 21.0369V14.3276C27.5291 13.6233 26.9529 13.0472 26.2487 13.0472ZM14.7633 17.3237C14.5713 17.5158 14.328 17.6054 14.0847 17.6054C13.8414 17.6054 13.5981 17.5158 13.4061 17.3237L12.4842 16.4018V21.7668C12.4842 22.2918 12.0488 22.7271 11.5239 22.7271C10.9989 22.7271 10.5636 22.2918 10.5636 21.7668V16.4018L9.64166 17.3237C9.27034 17.6951 8.65574 17.6951 8.28442 17.3237C7.9131 16.9524 7.9131 16.3378 8.28442 15.9665L10.8453 13.4057C10.9349 13.3288 11.0245 13.2648 11.1269 13.2136C11.1526 13.2008 11.191 13.188 11.2166 13.1752C11.2934 13.1496 11.3702 13.1368 11.4599 13.124C11.4983 13.124 11.5239 13.124 11.5623 13.124C11.6647 13.124 11.7672 13.1496 11.8696 13.188C11.8824 13.188 11.8824 13.188 11.8952 13.188C11.9976 13.2264 12.1001 13.3032 12.1769 13.3801C12.1897 13.3929 12.2025 13.3929 12.2025 13.4057L14.7633 15.9665C15.1346 16.3378 15.1346 16.9524 14.7633 17.3237Z" fill="#6E60FC"/>
<path d="M22.318 11.2803C23.5344 11.2931 25.2246 11.2931 26.6714 11.2931C27.4013 11.2931 27.7854 10.4352 27.2732 9.92308C25.4294 8.06648 22.126 4.72459 20.2309 2.82958C19.706 2.3046 18.7969 2.66312 18.7969 3.39296V7.86161C18.7969 9.73102 20.3846 11.2803 22.318 11.2803Z" fill="#6E60FC"/>
</svg>
