<svg width="19" height="20" viewBox="0 0 19 20" fill="none" xmlns="http://www.w3.org/2000/svg">
<path d="M3.94135 12.0197C3.2121 12.0197 2.53715 12.2757 2.00184 12.7024C1.2881 13.2688 0.838135 14.1454 0.838135 15.1229C0.838135 16.8375 2.22682 18.2262 3.94135 18.2262C4.72492 18.2262 5.43866 17.9313 5.98948 17.4503C6.6334 16.884 7.04457 16.0539 7.04457 15.1229C7.04457 13.4084 5.65588 12.0197 3.94135 12.0197ZM4.71716 15.3169C4.71716 15.5186 4.60855 15.7125 4.43787 15.8134L3.46811 16.3953C3.37502 16.4573 3.2664 16.4806 3.16555 16.4806C2.9716 16.4806 2.77765 16.3797 2.66903 16.2013C2.50611 15.922 2.59145 15.5651 2.87074 15.4022L3.56121 14.991V14.1532C3.55345 13.8351 3.81722 13.5713 4.1353 13.5713C4.45338 13.5713 4.71716 13.8351 4.71716 14.1532V15.3169Z" fill="#01AF5C"/>
<path d="M11.5831 3.44711V6.39517H10.4194V3.44711C10.4194 3.23765 10.2332 3.13679 10.1091 3.13679C10.0703 3.13679 10.0315 3.14455 9.99274 3.16006L3.84061 5.47972C3.42943 5.63488 3.16566 6.02278 3.16566 6.46499V6.98478C2.45968 7.51233 2.00195 8.35796 2.00195 9.3122V6.46499C2.00195 5.54178 2.56829 4.71943 3.42943 4.39359L9.58932 2.06618C9.76 2.00412 9.93843 1.97308 10.1091 1.97308C10.8849 1.97308 11.5831 2.60149 11.5831 3.44711Z" fill="#01AF5C"/>
<path d="M16.7421 11.6318V12.4076C16.7421 12.6171 16.5792 12.7877 16.3619 12.7955H15.2293C14.8181 12.7955 14.4457 12.4929 14.4147 12.0895C14.3914 11.849 14.4845 11.624 14.6397 11.4689C14.7793 11.3215 14.9733 11.2439 15.1827 11.2439H16.3542C16.5792 11.2517 16.7421 11.4223 16.7421 11.6318Z" fill="#01AF5C"/>
<path d="M15.1751 10.4293H15.9664C16.3931 10.4293 16.7422 10.0802 16.7422 9.65352V9.31217C16.7422 7.70625 15.4311 6.39514 13.8252 6.39514H4.91898C4.25954 6.39514 3.65442 6.61237 3.16566 6.98475C2.45968 7.5123 2.00195 8.35793 2.00195 9.31217V10.6931C2.00195 10.9879 2.31227 11.1741 2.59156 11.081C3.02602 10.9336 3.48374 10.856 3.94146 10.856C6.29215 10.856 8.20839 12.7723 8.20839 15.1229C8.20839 15.6815 8.06099 16.2944 7.82825 16.8375C7.70412 17.1168 7.89807 17.4504 8.20063 17.4504H13.8252C15.4311 17.4504 16.7422 16.1392 16.7422 14.5333V14.3859C16.7422 13.9592 16.3931 13.6101 15.9664 13.6101H15.2915C14.5467 13.6101 13.833 13.1524 13.639 12.4309C13.4839 11.8413 13.6701 11.2672 14.058 10.8948C14.345 10.6 14.7407 10.4293 15.1751 10.4293ZM10.9237 10.2742H7.04468C6.7266 10.2742 6.46283 10.0104 6.46283 9.69231C6.46283 9.37423 6.7266 9.11046 7.04468 9.11046H10.9237C11.2418 9.11046 11.5056 9.37423 11.5056 9.69231C11.5056 10.0104 11.2418 10.2742 10.9237 10.2742Z" fill="#01AF5C"/>
</svg>
