<svg width="20" height="21" viewBox="0 0 20 21" fill="none" xmlns="http://www.w3.org/2000/svg">
<path d="M12.4038 4.04979V7.10688H11.1971V4.04979C11.1971 3.83257 11.004 3.72799 10.8753 3.72799C10.835 3.72799 10.7948 3.73603 10.7546 3.75212L4.37492 6.15757C3.94854 6.31847 3.67501 6.72072 3.67501 7.17928V7.71829C2.94292 8.26535 2.46826 9.14226 2.46826 10.1318V7.17928C2.46826 6.22193 3.05555 5.36916 3.94854 5.03127L10.3362 2.61778C10.5132 2.55342 10.6983 2.52124 10.8753 2.52124C11.6798 2.52124 12.4038 3.17288 12.4038 4.04979Z" fill="#AA0000"/>
<path d="M17.7536 12.5371V13.3416C17.7536 13.5588 17.5847 13.7358 17.3594 13.7439H16.1848C15.7584 13.7439 15.3723 13.4301 15.3401 13.0118C15.316 12.7624 15.4125 12.5291 15.5734 12.3682C15.7182 12.2153 15.9193 12.1349 16.1366 12.1349H17.3513C17.5847 12.1429 17.7536 12.3199 17.7536 12.5371Z" fill="#AA0000"/>
<path d="M16.1286 11.2902H16.9492C17.3917 11.2902 17.7537 10.9282 17.7537 10.4857V10.1317C17.7537 8.46641 16.3941 7.10681 14.7288 7.10681H5.49317C4.80935 7.10681 4.18184 7.33207 3.67501 7.71823C2.94292 8.26529 2.46826 9.14219 2.46826 10.1317V15.546C2.46826 17.2113 3.82786 18.5709 5.49317 18.5709H14.7288C16.3941 18.5709 17.7537 17.2113 17.7537 15.546V15.3931C17.7537 14.9507 17.3917 14.5886 16.9492 14.5886H16.2493C15.477 14.5886 14.7368 14.114 14.5357 13.3658C14.3668 12.7544 14.5679 12.1671 14.9702 11.7729C15.2678 11.4672 15.6781 11.2902 16.1286 11.2902ZM11.72 11.1293H6.0885C5.75866 11.1293 5.48513 10.8558 5.48513 10.5259C5.48513 10.1961 5.75866 9.92255 6.0885 9.92255H11.72C12.0498 9.92255 12.3234 10.1961 12.3234 10.5259C12.3234 10.8558 12.0498 11.1293 11.72 11.1293Z" fill="#AA0000"/>
</svg>
