<svg width="36" height="35" viewBox="0 0 36 35" fill="none" xmlns="http://www.w3.org/2000/svg">
<path d="M31.0812 1.45831H26.7937C25.5249 1.45831 24.5916 1.98331 24.1687 2.91665C23.9353 3.33956 23.8333 3.8354 23.8333 4.41873V8.70623C23.8333 10.5583 24.9416 11.6666 26.7937 11.6666H31.0812C31.6645 11.6666 32.1603 11.5646 32.5833 11.3312C33.5166 10.9083 34.0416 9.97498 34.0416 8.70623V4.41873C34.0416 2.56665 32.9333 1.45831 31.0812 1.45831ZM32.452 7.18956C32.3062 7.3354 32.0874 7.43748 31.8541 7.45206H29.7978V8.19581L29.8124 9.47915C29.7978 9.72706 29.7103 9.93123 29.5353 10.1062C29.3895 10.2521 29.1708 10.3541 28.9374 10.3541C28.4562 10.3541 28.0624 9.9604 28.0624 9.47915V7.43748L26.0208 7.45206C25.5395 7.45206 25.1458 7.04373 25.1458 6.56248C25.1458 6.08123 25.5395 5.68748 26.0208 5.68748L27.3041 5.70206H28.0624V3.6604C28.0624 3.17915 28.4562 2.77081 28.9374 2.77081C29.4187 2.77081 29.8124 3.17915 29.8124 3.6604L29.7978 4.69581V5.68748H31.8541C32.3353 5.68748 32.7291 6.08123 32.7291 6.56248C32.7145 6.8104 32.6124 7.01456 32.452 7.18956Z" fill="#6E60FC"/>
<path d="M13.6249 15.1375C15.5418 15.1375 17.0957 13.5835 17.0957 11.6666C17.0957 9.74975 15.5418 8.1958 13.6249 8.1958C11.708 8.1958 10.1541 9.74975 10.1541 11.6666C10.1541 13.5835 11.708 15.1375 13.6249 15.1375Z" fill="#6E60FC"/>
<path d="M31.0813 11.6667H30.3959V18.3896L30.2063 18.2292C29.0688 17.2521 27.2313 17.2521 26.0938 18.2292L20.0272 23.4354C18.8897 24.4125 17.0522 24.4125 15.9147 23.4354L15.4188 23.0271C14.3834 22.1229 12.7355 22.0354 11.5688 22.8229L6.11466 26.4834C5.79383 25.6667 5.60425 24.7188 5.60425 23.6104V11.3896C5.60425 7.2771 7.77716 5.10419 11.8897 5.10419H23.8334V4.41877C23.8334 3.83544 23.9355 3.3396 24.1688 2.91669H11.8897C6.58133 2.91669 3.41675 6.08127 3.41675 11.3896V23.6104C3.41675 25.2 3.69383 26.5854 4.23341 27.7521C5.48758 30.5229 8.17091 32.0834 11.8897 32.0834H24.1105C29.4188 32.0834 32.5834 28.9188 32.5834 23.6104V11.3313C32.1605 11.5646 31.6647 11.6667 31.0813 11.6667Z" fill="#6E60FC"/>
</svg>
