<svg width="307" height="62" viewBox="0 0 307 62" fill="none" xmlns="http://www.w3.org/2000/svg">
<g clip-path="url(#clip0_235_540)">
<path d="M132.749 0.0200195C135.455 0.0200195 138.161 0.0200195 140.868 0.0200195C142.01 0.0200195 142.05 0.0804092 142.351 1.0869C143.734 5.83755 145.118 10.6083 146.481 15.359C147.303 18.2577 148.084 21.1765 148.926 24.0551C150.29 28.8057 151.693 33.5765 153.076 38.3272C153.597 40.0785 153.597 40.0986 151.793 40.1389C149.648 40.1791 147.523 40.1992 145.378 40.2194C145.017 40.2194 144.636 40.1389 144.276 40.1389C143.674 40.1389 143.394 39.8772 143.253 39.2733C142.973 37.9648 142.572 36.6765 142.271 35.3681C142.111 34.7038 141.79 34.4421 141.088 34.4421C135.636 34.4622 130.203 34.4622 124.75 34.4421C124.069 34.4421 123.728 34.6635 123.567 35.3278C123.247 36.6363 122.826 37.9044 122.505 39.2129C122.345 39.8369 122.064 40.1187 121.422 40.1187C118.656 40.0986 115.89 40.1187 113.123 40.1389C112.482 40.1389 112.401 39.8772 112.562 39.3337C112.983 37.844 113.344 36.3544 113.765 34.885C114.907 30.7583 116.07 26.6317 117.193 22.5051C118.095 19.2038 118.997 15.9226 119.899 12.6213C120.941 8.77651 122.004 4.93171 123.046 1.10703C123.327 0.100539 123.407 0.0401494 124.409 0.0401494C127.196 0.0200195 129.982 0.0200195 132.749 0.0200195ZM132.689 26.209C132.689 26.2291 132.689 26.2694 132.689 26.2895C134.693 26.2895 136.698 26.2694 138.683 26.2895C139.665 26.2895 139.785 26.1889 139.505 25.1824C138.683 22.0018 137.841 18.8414 136.999 15.6609C136.437 13.5272 135.896 11.3934 135.315 9.25963C135.034 8.25314 134.994 8.23301 133.932 8.23301C132.969 8.23301 131.987 8.25314 131.025 8.21288C130.524 8.19275 130.283 8.37392 130.163 8.81677C129.882 9.92392 129.601 11.0311 129.321 12.1181C128.76 14.3525 128.178 16.5869 127.617 18.8213C127.056 21.0356 126.514 23.2298 125.993 25.444C125.813 26.1687 125.853 26.1889 126.574 26.1889C128.619 26.209 130.664 26.209 132.689 26.209Z" fill="#6E60FC"/>
<path d="M285.003 0.0200195C287.709 0.0200195 290.416 0.0200195 293.122 0.0200195C294.244 0.0200195 294.264 0.0200195 294.585 1.0869C295.728 5.03236 296.851 8.99794 297.993 12.9434C299.116 16.8083 300.258 20.6531 301.361 24.4979C302.363 27.9603 303.346 31.4427 304.348 34.9252C304.749 36.3343 305.17 37.7434 305.551 39.1726C305.791 40.0382 305.691 40.1992 304.789 40.1992C302.183 40.2194 299.577 40.2194 296.971 40.1992C295.808 40.1791 295.748 40.0785 295.447 38.9109C295.127 37.7233 294.766 36.5356 294.525 35.3278C294.385 34.6434 294.044 34.4824 293.423 34.4824C288.15 34.5025 282.878 34.5025 277.606 34.5226C276.142 34.5226 276.142 34.5629 275.741 35.972C275.421 37.059 275.1 38.1661 274.839 39.2733C274.679 39.9577 274.298 40.2194 273.657 40.2194C272.554 40.2194 271.451 40.2395 270.349 40.2596C268.845 40.2596 267.342 40.2798 265.838 40.2395C264.776 40.1992 264.696 39.9979 264.956 39.0116C266.059 34.9856 267.141 30.9395 268.264 26.9135C269.367 22.9077 270.509 18.922 271.612 14.9363C272.694 11.0311 273.737 7.12586 274.799 3.22067C274.98 2.57651 275.18 1.93236 275.36 1.2882C275.721 0.0804092 275.721 0.0602793 277.004 0.0602793C279.31 0.0602793 281.615 0.0602793 283.92 0.0602793C284.281 0.0200195 284.642 0.0200195 285.003 0.0200195ZM286.226 26.2895V26.2694C287.87 26.2694 289.493 26.2492 291.137 26.2694C291.959 26.2694 292.079 26.1486 291.879 25.3434C290.456 19.9486 289.032 14.5337 287.629 9.13885C287.449 8.43431 287.108 8.21288 286.446 8.23301C285.544 8.25314 284.642 8.23301 283.74 8.21288C282.758 8.17262 282.657 8.21288 282.417 9.15898C282.036 10.6083 281.675 12.0778 281.314 13.5272C280.693 15.983 280.051 18.4389 279.43 20.9148C279.049 22.4447 278.648 23.9544 278.307 25.4843C278.127 26.2492 278.227 26.3096 278.949 26.3096C281.354 26.2895 283.78 26.2895 286.226 26.2895Z" fill="#6E60FC"/>
<path d="M225.225 20.0291C225.225 13.7285 225.225 7.42781 225.225 1.12716C225.225 0.0602792 225.225 0.0401494 226.247 0.0401494C228.613 0.0200195 230.998 0.0200195 233.364 0.0401494C234.486 0.0401494 234.546 0.120669 234.546 1.24794C234.546 5.7369 234.546 10.2259 234.546 14.735C234.546 15.0369 234.546 15.3389 234.566 15.6408C234.566 16.0635 234.787 16.2447 235.188 16.2447C235.388 16.2447 235.589 16.2447 235.789 16.2447C240.24 16.2447 244.67 16.2447 249.12 16.2447C250.283 16.2447 250.303 16.2447 250.303 15.0772C250.303 10.4876 250.303 5.89794 250.303 1.2882C250.303 0.0602793 250.323 0.0401494 251.506 0.0200195C253.851 0.0200195 256.177 0.0200195 258.522 0.0200195C259.585 0.0200195 259.625 0.0804092 259.625 1.16742C259.625 13.7687 259.625 26.3902 259.625 38.9914C259.625 40.1187 259.565 40.1992 258.442 40.2194C256.076 40.2194 253.711 40.2194 251.325 40.159C250.303 40.1389 250.283 40.0785 250.283 39.0317C250.283 34.9453 250.283 30.859 250.283 26.7525C250.283 26.4505 250.263 26.1486 250.283 25.8466C250.323 25.2427 250.063 25.0213 249.461 25.0213C244.75 25.0415 240.039 25.0213 235.328 25.0415C234.546 25.0415 234.526 25.0817 234.526 26.0681C234.526 30.1544 234.526 34.2408 234.526 38.3473C234.526 38.6492 234.506 38.9512 234.526 39.2531C234.566 39.8772 234.306 40.1791 233.664 40.1791C231.519 40.1791 229.394 40.1992 227.249 40.1992C227.049 40.1992 226.848 40.159 226.648 40.159C225.165 40.1389 225.165 40.2999 225.165 38.5486C225.225 32.3687 225.225 26.1889 225.225 20.0291Z" fill="#6E60FC"/>
<path d="M188.779 20.0091C188.779 13.7689 188.779 7.52862 188.779 1.28836C188.779 0.0201773 188.779 0.0201773 190.082 0.0201773C195.354 0.0201773 200.646 0.0403071 205.919 0.0201773C209.126 4.73782e-05 211.933 1.06693 214.459 2.95914C217.145 4.97213 218.849 7.6494 219.771 10.8903C221.495 16.9494 218.829 23.7936 213.136 27.2962C210.91 28.665 208.425 29.3293 205.798 29.3897C203.633 29.4299 201.448 29.3897 199.283 29.4098C198.261 29.4098 198.141 29.5708 198.161 30.5773C198.201 33.2949 198.201 36.0124 198.221 38.7299C198.221 38.9916 198.181 39.2734 198.161 39.5351C198.121 39.9981 197.86 40.1793 197.439 40.1793C194.773 40.1591 192.107 40.139 189.42 40.1189C188.939 40.1189 188.759 39.8773 188.779 39.4345C188.779 39.1728 188.779 38.891 188.779 38.6293C188.779 32.4293 188.779 26.2091 188.779 20.0091ZM198.141 14.715C198.121 14.715 198.121 14.715 198.141 14.715C198.141 16.3656 198.141 17.9962 198.121 19.6468C198.121 20.2306 198.321 20.5124 198.942 20.4923C201.087 20.4721 203.212 20.5728 205.357 20.452C208.485 20.291 210.91 17.6539 210.83 14.6143C210.73 10.9104 207.603 8.73641 205.097 8.83706C203.132 8.91758 201.168 8.85719 199.183 8.85719C198.241 8.85719 198.181 8.87732 198.161 9.86368C198.101 11.4942 198.141 13.1046 198.141 14.715Z" fill="#6E60FC"/>
<path d="M158.389 19.989C158.389 13.95 158.389 7.91109 158.389 1.87213C158.389 1.61044 158.389 1.32862 158.389 1.06693C158.409 0.120827 158.509 0.0201771 159.431 0.0201771C161.336 4.72059e-05 163.24 0.0201771 165.144 0.0201771C165.786 0.0201771 166.407 0.0201771 167.049 0.040307C167.57 0.040307 167.851 0.301995 167.831 0.845502C167.811 1.14745 167.831 1.4494 167.831 1.75135C167.831 10.9306 167.831 20.1299 167.831 29.3091C167.831 29.5507 167.831 29.7721 167.831 30.0137C167.831 31.3624 167.831 31.3624 169.134 31.3624C173.604 31.3624 178.075 31.3624 182.565 31.3624C184.068 31.3624 184.068 31.3624 184.068 32.852C184.068 34.9052 184.068 36.9384 184.068 38.9916C184.068 40.1793 184.028 40.2195 182.806 40.2195C177.132 40.2195 171.459 40.2195 165.766 40.2195C163.761 40.2195 161.757 40.2195 159.752 40.1591C158.369 40.1189 158.369 40.0585 158.369 38.6091C158.369 34.241 158.369 29.8929 158.369 25.5247C158.389 23.6728 158.389 21.841 158.389 19.989Z" fill="#6E60FC"/>
<path d="M93.4169 31.0603C93.4169 40.8434 93.4169 50.6467 93.4169 60.4298C93.4169 61.9597 93.4169 61.9597 91.8734 61.9597C88.2249 61.9597 84.5964 61.9597 80.9479 61.9597C79.7251 61.9597 79.705 61.9395 79.705 60.7317C79.705 56.3636 79.705 52.0155 79.705 47.6473C79.705 47.4058 79.705 47.1843 79.705 46.9428C79.7251 46.4798 79.5246 46.3389 79.0836 46.5201C78.2416 46.8421 77.3997 47.1642 76.5577 47.4863C70.7642 49.7207 64.9707 51.9551 59.1773 54.1895C53.3437 56.424 47.4901 58.5577 41.6966 60.8928C39.732 61.6778 37.7674 61.9999 35.6826 61.9999C24.3161 61.9597 12.9697 61.9798 1.60327 61.9798C-0.0205078 61.9798 -0.0205078 61.9798 -0.0205078 60.3895C-0.0205078 50.9084 -0.0205078 41.4071 -0.0205078 31.9259C-0.0205078 30.5772 -0.0205078 30.5571 1.26248 30.0538C4.97111 28.6246 8.67974 27.1954 12.3884 25.7863C18.4625 23.4512 24.5366 21.1162 30.6108 18.7811C35.0411 17.0902 39.4714 15.3993 43.9017 13.7084C50.2565 11.2727 56.6113 8.81682 62.9661 6.3811C67.5167 4.6298 72.1274 3.01941 76.6179 1.14734C78.7829 0.241493 80.9479 -6.558e-05 83.2333 0.0401942C86.1801 0.100584 89.1069 0.060324 92.0538 0.060324C93.3568 0.060324 93.3969 0.100584 93.3969 1.42915C93.4169 11.2727 93.4169 21.1766 93.4169 31.0603ZM25.1581 48.2512C27.9646 48.2512 30.7712 48.1506 33.5777 48.2915C35.6224 48.372 37.4467 47.8688 39.291 47.124C42.9194 45.6746 46.5679 44.2856 50.2164 42.8967C53.1833 41.7694 56.1502 40.6623 59.1171 39.535C62.926 38.0856 66.7148 36.6162 70.5237 35.1467C73.2701 34.0999 76.0164 33.0532 78.7628 32.0064C79.7451 31.624 79.7451 31.6038 79.7451 30.5369C79.7451 28.0811 79.7451 25.6454 79.7451 23.1895C79.7451 20.633 79.7451 18.0967 79.7451 15.5402C79.7451 14.7551 79.6649 14.7149 78.9232 14.9766C77.7405 15.4194 76.5577 15.8824 75.375 16.3253C69.3008 18.6603 63.2066 20.9753 57.1325 23.3103C50.457 25.8668 43.8015 28.4434 37.1259 30.9999C29.6084 33.8785 22.111 36.7571 14.5935 39.5954C13.8919 39.8571 13.7115 40.2395 13.7315 40.924C13.7716 42.9772 13.7515 45.0103 13.7515 47.0636C13.7515 48.2311 13.7515 48.2512 14.8942 48.2512C18.2821 48.2512 21.7301 48.2512 25.1581 48.2512Z" fill="#6E60FC"/>
<path d="M10.5245 13.6883C7.45736 13.6883 4.39022 13.6883 1.30303 13.6883C0.06014 13.6883 0 13.6279 0 12.3597C0 8.67597 0 4.99221 0 1.28831C0 0.0603897 0.0601399 0 1.32308 0C7.43731 0 13.5515 0 19.6457 0C20.8886 0 20.9888 0.0603897 20.9888 1.28831C21.0089 4.83117 20.9688 8.39416 20.9488 11.937C20.9488 12.0779 20.9287 12.1987 20.9287 12.3396C20.9488 13.6481 20.9488 13.6481 19.6257 13.6481C16.5986 13.6883 13.5515 13.6883 10.5245 13.6883Z" fill="#6E60FC"/>
<path d="M239.417 54.7935C239.537 58.0142 237.272 60.9733 233.824 61.7181C231.899 62.1207 230.075 61.9798 228.331 61.2551C225.484 60.0876 224.161 57.6519 224.141 54.6324C224.141 52.1967 225.023 50.1435 227.108 48.6941C230.356 46.4194 236.049 46.9831 238.314 50.5259C239.116 51.7941 239.437 53.1629 239.417 54.7935ZM236.089 54.6123C236.089 52.1363 234.225 50.1837 231.879 50.1837C229.313 50.1837 227.509 52.0759 227.549 54.6727C227.589 57.2292 229.293 59.0409 231.659 59.0811C234.646 59.1013 236.009 57.048 236.089 54.6123Z" fill="#6E60FC"/>
<path d="M206.48 54.6324C206.48 52.6798 206.48 50.7473 206.48 48.7948C206.48 47.8084 206.601 47.7077 207.583 47.6876C209.528 47.6675 211.452 47.6474 213.397 47.7077C214.68 47.748 215.902 48.0499 216.945 48.8954C218.268 49.9623 218.729 51.3714 218.488 53.0019C218.228 54.6928 217.165 55.7396 215.622 56.3032C214.82 56.6051 214.8 56.585 215.361 57.209C216.363 58.3766 217.386 59.524 218.388 60.6915C218.549 60.8727 218.629 61.1344 218.729 61.3759C218.488 61.4363 218.248 61.5571 218.007 61.5571C215.321 61.6577 215.321 61.6577 213.597 59.5441C212.976 58.7993 212.394 58.0142 211.733 57.3097C211.512 57.0681 211.151 56.8467 210.831 56.7863C210.109 56.6655 209.949 56.8266 209.928 57.5915C209.908 58.598 209.928 59.6045 209.908 60.611C209.888 61.4363 209.768 61.537 208.966 61.5772C208.525 61.5974 208.104 61.5974 207.663 61.5772C206.601 61.5571 206.5 61.4766 206.5 60.4298C206.46 58.5175 206.46 56.5649 206.48 54.6324ZM209.888 52.3175C209.888 52.7603 209.888 53.1831 209.888 53.6259C209.888 54.0688 210.049 54.3305 210.53 54.3103C211.532 54.2701 212.535 54.3103 213.497 54.1694C214.659 53.9883 215.121 53.3441 215.101 52.2571C215.08 51.2707 214.419 50.5461 213.356 50.4051C212.855 50.3448 212.354 50.3649 211.873 50.3649C209.668 50.385 209.908 50.0629 209.888 52.3175Z" fill="#6E60FC"/>
<path d="M275.16 54.6325C275.1 50.7877 277.806 47.7682 281.735 47.4059C285.043 47.0838 288.09 48.9358 289.053 51.5124C289.433 52.5592 289.313 52.8007 288.17 52.9215C287.83 52.9617 287.509 52.9416 287.168 52.9819C286.507 53.0624 286.126 52.8007 285.845 52.1968C285.183 50.7877 283.941 50.2241 282.497 50.2241C281.014 50.2241 279.771 50.8884 279.069 52.2773C278.287 53.8273 278.267 55.4377 279.049 57.028C279.751 58.4371 280.954 59.0611 282.477 59.0812C283.921 59.1014 285.123 58.578 285.785 57.2494C286.166 56.4643 286.687 56.263 287.449 56.4241C287.709 56.4845 287.97 56.5046 288.231 56.5449C289.333 56.726 289.453 56.9676 289.012 58.0345C288.01 60.4098 286.046 61.5572 283.66 61.9195C280.813 62.3423 277.506 61.3156 275.902 58.1553C275.361 57.028 275.16 55.8403 275.16 54.6325Z" fill="#6E60FC"/>
<path d="M259.123 54.6525C259.123 52.6999 259.123 50.7675 259.123 48.8149C259.123 47.7681 259.203 47.6876 260.185 47.6876C262.911 47.6675 265.658 47.6675 268.384 47.6876C269.246 47.6876 269.346 47.8285 269.386 48.6739C269.447 50.4655 269.447 50.4856 267.682 50.4856C266.239 50.4856 264.816 50.4655 263.372 50.4856C262.47 50.5058 262.41 50.546 262.41 51.472C262.41 53.5252 262.21 53.2636 264.134 53.2837C265.397 53.3038 266.66 53.3038 267.943 53.2837C268.585 53.2636 268.885 53.5252 268.825 54.1694C268.805 54.3304 268.825 54.5116 268.825 54.6727C268.805 55.6791 268.745 55.7395 267.723 55.7395C266.259 55.7395 264.796 55.7395 263.312 55.7395C262.45 55.7395 262.39 55.7999 262.41 56.6655C262.43 59.1012 262.15 58.6986 264.375 58.7389C265.778 58.759 267.181 58.7389 268.585 58.759C269.447 58.7791 269.547 58.8999 269.587 59.7655C269.667 61.5168 269.607 61.5973 267.883 61.5973C265.417 61.5973 262.951 61.5973 260.486 61.5973C259.143 61.5973 259.123 61.5772 259.123 60.2688C259.123 58.3967 259.123 56.5246 259.123 54.6525Z" fill="#6E60FC"/>
<path d="M188.779 54.572C188.779 52.6194 188.779 50.687 188.779 48.7344C188.779 47.7883 188.859 47.7078 189.801 47.6876C191.666 47.6675 193.55 47.587 195.414 47.7279C196.417 47.8084 197.459 48.1305 198.341 48.5935C199.985 49.4591 200.566 51.0292 200.406 52.8409C200.246 54.6928 199.223 55.9207 197.539 56.6052C196.377 57.0681 195.154 57.1688 193.891 57.1285C193.59 57.1084 193.289 57.1285 192.989 57.1285C192.447 57.1084 192.187 57.3701 192.207 57.9136C192.207 58.7792 192.227 59.6649 192.207 60.5305C192.187 61.4766 192.087 61.5974 191.164 61.5974C188.418 61.5974 188.799 61.9194 188.779 59.3026C188.759 57.7324 188.779 56.1422 188.779 54.572ZM192.187 52.5188C192.187 52.9818 192.147 53.4649 192.207 53.9078C192.227 54.1091 192.468 54.4513 192.608 54.4311C193.67 54.411 194.733 54.411 195.775 54.2097C196.497 54.0688 196.918 53.4448 197.018 52.6798C197.118 51.935 196.878 51.311 196.276 50.8279C195.715 50.385 195.074 50.3045 194.392 50.3246C191.866 50.385 192.247 50.063 192.187 52.5188Z" fill="#6E60FC"/>
<path d="M300.399 47.6877C302.023 47.6877 303.667 47.6877 305.291 47.6877C306.273 47.6877 306.333 47.7683 306.333 48.6942C306.333 50.7877 306.453 50.5059 304.509 50.5462C303.967 50.5462 303.446 50.5663 302.905 50.5462C302.243 50.5059 302.023 50.8079 302.043 51.452C302.063 53.2637 302.063 55.0754 302.043 56.867C302.043 58.1351 302.023 59.4033 302.043 60.6916C302.043 61.3157 301.802 61.5975 301.161 61.5975C298.254 61.5975 298.675 61.8189 298.655 59.3027C298.635 56.7663 298.655 54.2098 298.655 51.6735C298.655 50.5864 298.635 50.5663 297.512 50.5663C296.751 50.5663 295.969 50.5663 295.207 50.5663C294.606 50.5663 294.265 50.3449 294.265 49.7007C294.225 47.4864 294.265 47.7079 296.089 47.7079C297.532 47.6877 298.956 47.6877 300.399 47.6877Z" fill="#6E60FC"/>
<path d="M252.227 53.2434C252.227 54.6122 252.247 55.9811 252.227 57.37C252.187 60.007 250.362 61.8388 247.716 61.859C247.015 61.859 246.313 61.7583 245.631 61.6778C244.99 61.5973 244.709 61.2148 244.749 60.5707C244.769 60.3694 244.749 60.1681 244.749 59.9668C244.769 59.0207 244.85 58.9804 245.812 59.0609C246.293 59.1012 246.814 59.0811 247.295 59.0005C248.137 58.8596 248.658 58.3161 248.779 57.4505C248.839 56.9473 248.899 56.444 248.899 55.9609C248.919 53.5856 248.899 51.2103 248.919 48.8349C248.919 47.8083 248.999 47.7278 249.982 47.7278C252.668 47.7278 252.187 47.5265 252.227 49.9622C252.247 51.0291 252.247 52.1362 252.227 53.2434Z" fill="#6E60FC"/>
</g>
<defs>
<clipPath id="clip0_235_540">
<rect width="306.353" height="62" fill="white"/>
</clipPath>
</defs>
</svg>
