<svg width="94" height="62" viewBox="0 0 94 62" fill="none" xmlns="http://www.w3.org/2000/svg">
<path d="M93.4169 31.0603C93.4169 40.8434 93.4169 50.6467 93.4169 60.4298C93.4169 61.9597 93.4169 61.9597 91.8734 61.9597C88.2249 61.9597 84.5964 61.9597 80.9479 61.9597C79.7251 61.9597 79.705 61.9395 79.705 60.7317C79.705 56.3636 79.705 52.0155 79.705 47.6473C79.705 47.4058 79.705 47.1843 79.705 46.9428C79.7251 46.4798 79.5246 46.3389 79.0836 46.5201C78.2416 46.8421 77.3997 47.1642 76.5577 47.4863C70.7642 49.7207 64.9707 51.9551 59.1773 54.1895C53.3437 56.424 47.4901 58.5577 41.6966 60.8928C39.732 61.6778 37.7674 61.9999 35.6826 61.9999C24.3161 61.9597 12.9697 61.9798 1.60327 61.9798C-0.0205078 61.9798 -0.0205078 61.9798 -0.0205078 60.3895C-0.0205078 50.9084 -0.0205078 41.4071 -0.0205078 31.9259C-0.0205078 30.5772 -0.0205078 30.5571 1.26248 30.0538C4.97111 28.6246 8.67974 27.1954 12.3884 25.7863C18.4625 23.4512 24.5366 21.1162 30.6108 18.7811C35.0411 17.0902 39.4714 15.3993 43.9017 13.7084C50.2565 11.2727 56.6113 8.81682 62.9661 6.3811C67.5167 4.6298 72.1274 3.01941 76.6179 1.14734C78.7829 0.241493 80.9479 -6.558e-05 83.2333 0.0401942C86.1801 0.100584 89.1069 0.060324 92.0538 0.060324C93.3568 0.060324 93.3969 0.100584 93.3969 1.42915C93.4169 11.2727 93.4169 21.1766 93.4169 31.0603ZM25.1581 48.2512C27.9646 48.2512 30.7712 48.1506 33.5777 48.2915C35.6224 48.372 37.4467 47.8688 39.291 47.124C42.9194 45.6746 46.5679 44.2856 50.2164 42.8967C53.1833 41.7694 56.1502 40.6623 59.1171 39.535C62.926 38.0856 66.7148 36.6162 70.5237 35.1467C73.2701 34.0999 76.0164 33.0532 78.7628 32.0064C79.7451 31.624 79.7451 31.6038 79.7451 30.5369C79.7451 28.0811 79.7451 25.6454 79.7451 23.1895C79.7451 20.633 79.7451 18.0967 79.7451 15.5402C79.7451 14.7551 79.6649 14.7149 78.9232 14.9766C77.7405 15.4194 76.5577 15.8824 75.375 16.3253C69.3008 18.6603 63.2066 20.9753 57.1325 23.3103C50.457 25.8668 43.8015 28.4434 37.1259 30.9999C29.6084 33.8785 22.111 36.7571 14.5935 39.5954C13.8919 39.8571 13.7115 40.2395 13.7315 40.924C13.7716 42.9772 13.7515 45.0103 13.7515 47.0636C13.7515 48.2311 13.7515 48.2512 14.8942 48.2512C18.2821 48.2512 21.7301 48.2512 25.1581 48.2512Z" fill="#6E60FC"/>
<path d="M10.5245 13.6883C7.45736 13.6883 4.39022 13.6883 1.30303 13.6883C0.06014 13.6883 0 13.6279 0 12.3597C0 8.67597 0 4.99221 0 1.28831C0 0.0603897 0.0601399 0 1.32308 0C7.43731 0 13.5515 0 19.6457 0C20.8886 0 20.9888 0.0603897 20.9888 1.28831C21.0089 4.83117 20.9688 8.39416 20.9488 11.937C20.9488 12.0779 20.9287 12.1987 20.9287 12.3396C20.9488 13.6481 20.9488 13.6481 19.6257 13.6481C16.5986 13.6883 13.5515 13.6883 10.5245 13.6883Z" fill="#6E60FC"/>
</svg>
