<svg width="19" height="19" viewBox="0 0 19 19" fill="none" xmlns="http://www.w3.org/2000/svg">
<path d="M13.3 1.5835H11.2417C8.70833 1.5835 7.125 3.16683 7.125 5.70016V8.90641H12.0729C12.3975 8.90641 12.6667 9.17558 12.6667 9.50016C12.6667 9.82475 12.3975 10.0939 12.0729 10.0939H7.125V13.3002C7.125 15.8335 8.70833 17.4168 11.2417 17.4168H13.2921C15.8254 17.4168 17.4088 15.8335 17.4088 13.3002V5.70016C17.4167 3.16683 15.8333 1.5835 13.3 1.5835Z" fill="white"/>
<path d="M3.60965 8.90596L5.2484 7.26721C5.36715 7.14846 5.42256 6.99805 5.42256 6.84763C5.42256 6.69721 5.36715 6.53888 5.2484 6.42805C5.01882 6.19846 4.63882 6.19846 4.40923 6.42805L1.75715 9.08013C1.52757 9.30971 1.52757 9.68971 1.75715 9.9193L4.40923 12.5714C4.63882 12.801 5.01882 12.801 5.2484 12.5714C5.47798 12.3418 5.47798 11.9618 5.2484 11.7322L3.60965 10.0935H7.12465V8.90596H3.60965Z" fill="white"/>
</svg>
