<svg width="21" height="21" viewBox="0 0 21 21" fill="none" xmlns="http://www.w3.org/2000/svg">
<path d="M7.25366 5.50375C6.88616 5.50375 6.59741 5.20625 6.59741 4.8475V2.40625C6.59741 2.0475 6.88616 1.75 7.25366 1.75C7.62116 1.75 7.90991 2.0475 7.90991 2.40625V4.83875C7.90991 5.20625 7.62116 5.50375 7.25366 5.50375Z" fill="#669E6B"/>
<path d="M13.7463 5.50375C13.3788 5.50375 13.0901 5.20625 13.0901 4.8475V2.40625C13.0901 2.03875 13.3876 1.75 13.7463 1.75C14.1138 1.75 14.4026 2.0475 14.4026 2.40625V4.83875C14.4026 5.20625 14.1138 5.50375 13.7463 5.50375Z" fill="#669E6B"/>
<path d="M18.8125 13.8425C18.8125 13.9737 18.7688 14.105 18.655 14.2187C17.3863 15.4962 15.1288 17.7712 13.8338 19.075C13.72 19.1975 13.5713 19.25 13.4225 19.25C13.1338 19.25 12.8538 19.0225 12.8538 18.69V15.6275C12.8538 14.35 13.9388 13.2912 15.2688 13.2912C16.1 13.2825 17.255 13.2825 18.2438 13.2825C18.585 13.2825 18.8125 13.5537 18.8125 13.8425Z" fill="#669E6B"/>
<path d="M18.8125 13.8425C18.8125 13.9737 18.7688 14.105 18.655 14.2187C17.3863 15.4962 15.1288 17.7712 13.8338 19.075C13.72 19.1975 13.5713 19.25 13.4225 19.25C13.1338 19.25 12.8538 19.0225 12.8538 18.69V15.6275C12.8538 14.35 13.9388 13.2912 15.2688 13.2912C16.1 13.2825 17.255 13.2825 18.2438 13.2825C18.585 13.2825 18.8125 13.5537 18.8125 13.8425Z" fill="#669E6B"/>
<path d="M17.1242 3.9375C16.5467 3.50875 15.7155 3.92 15.7155 4.64625V4.73375C15.7155 5.7575 14.9805 6.7025 13.9567 6.8075C12.7755 6.93 11.778 6.0025 11.778 4.8475V3.9375C11.778 3.45625 11.3842 3.0625 10.903 3.0625H10.098C9.61674 3.0625 9.22299 3.45625 9.22299 3.9375V4.73375C9.22299 5.50375 8.81174 6.22125 8.17299 6.57125C8.13799 6.5975 8.10299 6.615 8.06799 6.6325C8.05924 6.6325 8.05924 6.64125 8.05049 6.64125C7.98924 6.6675 7.92799 6.69375 7.85799 6.72C7.84049 6.72875 7.82299 6.72875 7.80549 6.7375C7.70049 6.7725 7.58674 6.79875 7.46424 6.8075H7.45549C7.32424 6.825 7.18424 6.825 7.05299 6.8075H7.04424C6.92174 6.79875 6.80799 6.7725 6.70299 6.7375C6.61549 6.71125 6.52799 6.67625 6.44049 6.6325C5.75799 6.32625 5.28549 5.64375 5.28549 4.8475V4.64625C5.28549 3.9725 4.56799 3.57 3.99924 3.85875C3.99049 3.8675 3.98174 3.8675 3.97299 3.87625H3.96424C3.90299 3.92 3.85049 3.96375 3.78924 4.0075C3.69299 4.08625 3.59674 4.165 3.50924 4.2525C3.44799 4.31375 3.38674 4.375 3.33424 4.43625C3.26424 4.50625 3.20299 4.57625 3.14174 4.655C3.09799 4.7075 3.04549 4.76 3.01049 4.82125C2.96674 4.87375 2.93174 4.935 2.89674 4.9875C2.88799 4.99625 2.87924 5.005 2.87049 5.0225C2.79174 5.13625 2.72174 5.2675 2.66049 5.39C2.64299 5.4075 2.63424 5.41625 2.63424 5.43375C2.58174 5.53875 2.52924 5.64375 2.49424 5.7575C2.46799 5.80125 2.45924 5.83625 2.44174 5.88C2.42424 5.915 2.41549 5.95875 2.39799 5.99375C2.37174 6.08125 2.34549 6.1775 2.31924 6.27375C2.28424 6.39625 2.25799 6.5275 2.24049 6.65875C2.22299 6.755 2.21424 6.85125 2.20549 6.95625C2.19674 7.07875 2.18799 7.20125 2.18799 7.32375V14.9887C2.18799 17.3425 4.09549 19.25 6.44924 19.25H10.6667C11.148 19.25 11.5417 18.8562 11.5417 18.375V15.6275C11.5417 13.615 13.213 11.9787 15.2692 11.9787C15.733 11.97 16.8617 11.97 17.938 11.97C18.4192 11.97 18.813 11.5763 18.813 11.095V7.32375C18.813 5.9325 18.148 4.71625 17.1242 3.9375ZM9.73924 13.9212C9.66049 14.1838 9.41549 14.3675 9.12674 14.3675H5.94174C5.89799 14.3675 5.86299 14.3675 5.82799 14.35C5.51299 14.3062 5.28549 14.035 5.28549 13.7113C5.28549 13.3438 5.57424 13.0462 5.94174 13.0462H9.12674C9.48549 13.0462 9.78299 13.3438 9.78299 13.7113C9.78299 13.7812 9.77424 13.86 9.73924 13.9212ZM12.1717 10.675C12.093 10.9375 11.848 11.1213 11.5592 11.1213H5.94174C5.89799 11.1213 5.86299 11.1212 5.82799 11.1037C5.51299 11.06 5.28549 10.7888 5.28549 10.465C5.28549 10.0975 5.57424 9.8 5.94174 9.8H11.5592C11.9267 9.8 12.2155 10.0975 12.2155 10.465C12.2155 10.535 12.2067 10.6137 12.1717 10.675Z" fill="#669E6B"/>
</svg>
