<svg width="21" height="21" viewBox="0 0 21 21" fill="none" xmlns="http://www.w3.org/2000/svg">
<path d="M4.84776 12.8704C3.07474 12.8704 1.63867 14.3064 1.63867 16.0794C1.63867 16.6812 1.80715 17.2508 2.10399 17.7321C2.65756 18.6628 3.67644 19.2885 4.84776 19.2885C6.01908 19.2885 7.03796 18.6628 7.59153 17.7321C7.88837 17.2508 8.05685 16.6812 8.05685 16.0794C8.05685 14.3064 6.62078 12.8704 4.84776 12.8704ZM6.42824 15.8147L4.7194 17.3952C4.60708 17.4995 4.45465 17.5556 4.31024 17.5556C4.15781 17.5556 4.00537 17.4995 3.88503 17.3791L3.09078 16.5849C2.85813 16.3522 2.85813 15.9671 3.09078 15.7345C3.32344 15.5018 3.70853 15.5018 3.94119 15.7345L4.32628 16.1196L5.60992 14.9322C5.8506 14.7076 6.23569 14.7236 6.46033 14.9643C6.68496 15.205 6.66892 15.5901 6.42824 15.8147Z" fill="#31B9F8"/>
<path d="M18.0853 10.8647H16.0796C15.1971 10.8647 14.4751 11.5868 14.4751 12.4693C14.4751 13.3518 15.1971 14.0738 16.0796 14.0738H18.0853C18.31 14.0738 18.4865 13.8973 18.4865 13.6727V11.2659C18.4865 11.0412 18.31 10.8647 18.0853 10.8647Z" fill="#31B9F8"/>
<path d="M14.098 5.16854C14.3387 5.4012 14.1381 5.76222 13.8011 5.76222L7.15832 5.7542C6.77323 5.7542 6.58068 5.28888 6.85346 5.01611L8.25743 3.60411C9.4448 2.42477 11.3622 2.42477 12.5496 3.60411L14.0659 5.13645C14.0739 5.14447 14.09 5.16052 14.098 5.16854Z" fill="#31B9F8"/>
<path d="M18.3822 15.8066C17.8928 17.4593 16.4808 18.4862 14.5554 18.4862H9.34059C9.0277 18.4862 8.82713 18.1413 8.9555 17.8524C9.19618 17.2908 9.34861 16.6571 9.34861 16.0794C9.34861 13.6485 7.367 11.6669 4.93611 11.6669C4.32639 11.6669 3.73271 11.7953 3.18716 12.036C2.89032 12.1643 2.5293 11.9638 2.5293 11.6428V10.4635C2.5293 8.28133 3.84502 6.75701 5.89082 6.50028C6.09139 6.46819 6.308 6.45215 6.53263 6.45215H14.5554C14.7639 6.45215 14.9645 6.46017 15.1571 6.49226C16.7777 6.67678 17.949 7.66358 18.3822 9.13174C18.4624 9.39649 18.2699 9.66124 17.9971 9.66124H16.1599C14.419 9.66124 13.0391 11.2497 13.4161 13.0548C13.6809 14.3706 14.9003 15.2771 16.2401 15.2771H17.9971C18.2779 15.2771 18.4624 15.5499 18.3822 15.8066Z" fill="#31B9F8"/>
</svg>
